<svg id="Layer_1" data-name="Layer 1" xmlns="http://www.w3.org/2000/svg" xmlns:xlink="http://www.w3.org/1999/xlink" viewBox="0 0 342 342"><defs><style>.cls-1{fill:url(#linear-gradient);}.cls-2{fill:#fff;}</style><linearGradient id="linear-gradient" x1="50.08" y1="50.08" x2="291.92" y2="291.92" gradientUnits="userSpaceOnUse"><stop offset="0" stop-color="#0037cc"/><stop offset="0.36" stop-color="#00a5fd"/><stop offset="0.68" stop-color="#13d2e4"/><stop offset="1" stop-color="#3bfbb1"/></linearGradient></defs><circle class="cls-1" cx="171" cy="171" r="171"/><path class="cls-2" d="M385,335.31s9.87-12.07,11.6-17.34c1.16-3.52-.61-9.41-2.9-11.14s-10.48-5.13-13.35-6.13c-3.13-1.09-24.59-5.5-24.59-5.5s-26.17-2.66-44.63-2.39c-16.68,1.45-24.85,3.74-36.72,11.21s-19.92,18-22.56,30.22a54.23,54.23,0,0,0-1.05,10.88,91.88,91.88,0,0,0,1.58,17s2.24-3.57,10.68-10.29,23.21-9.35,23.21-9.35c9.49-2.37,20.83-.28,20.83-.28,12.93.93,18.46-.79,18.46-.79a40,40,0,0,0,26.11-15.94c-.79.66-16.22-3.47-18.39-3.73s-17.21-.94-26.44-.54-19.65,3.47-23.47,4.8a47.73,47.73,0,0,0-4.92,2l1.36-1.45,1.78-1.7c2.53-2.71,7.08-5.24,11.83-7.12a107.17,107.17,0,0,1,11.18-3.82c7.78-3.33,32.17-2,32.17-2,8.84-.93,32.31,4.94,32.31,4.94a34.45,34.45,0,0,0,3.52,1.17l-.23.37,0,0c-2.74,3.79-5.23,7.09-5.23,7.09s-21,24.39-26,29.4l-74,82.85s-9.87,12.07-11.6,17.34c-1.16,3.52.61,9.41,2.9,11.14s10.48,5.13,13.35,6.13c3.13,1.09,24.59,5.5,24.59,5.5s26.17,2.66,44.63,2.39c16.68-1.45,24.85-3.74,36.72-11.21s19.92-18,22.56-30.22a54.23,54.23,0,0,0,1.05-10.88,91.88,91.88,0,0,0-1.58-17s-2.24,3.57-10.68,10.29-23.21,9.35-23.21,9.35c-9.49,2.37-20.83.28-20.83.28-12.93-.93-18.46.79-18.46.79a40,40,0,0,0-26.11,15.94c.79-.66,16.22,3.47,18.39,3.73s17.21.94,26.44.54,19.65-3.47,23.47-4.8a47.73,47.73,0,0,0,4.92-2l-1.36,1.45-1.78,1.7c-2.53,2.71-7.08,5.24-11.83,7.12a107.17,107.17,0,0,1-11.18,3.82c-7.78,3.33-32.17,2-32.17,2-8.84.93-32.31-4.94-32.31-4.94a34.45,34.45,0,0,0-3.52-1.17l.23-.37,0,0c2.74-3.79,5.23-7.09,5.23-7.09s21-24.39,26-29.4Z" transform="translate(-155 -215.5)"/></svg>